<svg width="59" height="49" viewBox="0 0 59 49" fill="none" xmlns="http://www.w3.org/2000/svg">
<path d="M27.4962 48.6953L54.791 48.6953C55.8467 48.6953 56.8591 48.2837 57.6056 47.551C58.3521 46.8183 58.7715 45.8245 58.7715 44.7883L58.7715 4.60229C58.7715 3.56609 58.3521 2.57234 57.6056 1.83964C56.8591 1.10694 55.8467 0.69531 54.791 0.69531L27.4962 0.695311C26.4405 0.695311 25.428 1.10694 24.6815 1.83964C23.935 2.57234 23.5157 3.56609 23.5157 4.60229L23.5157 11.3C23.5157 11.744 23.6954 12.1699 24.0153 12.484C24.3352 12.798 24.7692 12.9744 25.2216 12.9744C25.674 12.9744 26.1079 12.798 26.4279 12.484C26.7478 12.1699 26.9275 11.744 26.9275 11.3L26.9275 4.60229C26.9275 4.45426 26.9874 4.3123 27.0941 4.20762C27.2007 4.10295 27.3454 4.04415 27.4962 4.04415L54.791 4.04415C54.9418 4.04415 55.0864 4.10295 55.1931 4.20762C55.2997 4.31229 55.3596 4.45426 55.3596 4.60229L55.3596 44.7883C55.3596 44.9364 55.2997 45.0783 55.1931 45.183C55.0864 45.2877 54.9418 45.3465 54.791 45.3465L27.4962 45.3465C27.3454 45.3465 27.2007 45.2877 27.0941 45.183C26.9874 45.0783 26.9275 44.9364 26.9275 44.7883L26.9275 38.0907C26.9275 37.6466 26.7478 37.2207 26.4279 36.9067C26.1079 36.5927 25.674 36.4162 25.2216 36.4162C24.7692 36.4162 24.3352 36.5927 24.0153 36.9067C23.6954 37.2207 23.5157 37.6466 23.5157 38.0907L23.5157 44.7883C23.5157 45.8245 23.935 46.8183 24.6815 47.551C25.428 48.2837 26.4405 48.6953 27.4962 48.6953ZM15.0543 14.7158L6.59572 23.0209L34.3199 23.0209C34.7723 23.0209 35.2062 23.1973 35.5261 23.5113C35.8461 23.8253 36.0258 24.2512 36.0258 24.6953C36.0258 25.1394 35.8461 25.5653 35.5261 25.8793C35.2062 26.1933 34.7723 26.3697 34.3199 26.3697L6.59572 26.3697L15.0543 34.6748C15.2219 34.8281 15.3563 35.013 15.4496 35.2184C15.5428 35.4238 15.5929 35.6455 15.597 35.8703C15.601 36.0952 15.5589 36.3185 15.4731 36.527C15.3873 36.7355 15.2596 36.9249 15.0976 37.0839C14.9356 37.2429 14.7426 37.3682 14.5302 37.4524C14.3178 37.5366 14.0903 37.578 13.8612 37.574C13.6322 37.5701 13.4063 37.5209 13.197 37.4293C12.9877 37.3378 12.7994 37.2059 12.6432 37.0414L1.27039 25.8786C0.950925 25.5646 0.771485 25.139 0.771485 24.6953C0.771485 24.2516 0.950925 23.826 1.27039 23.5121L12.6432 12.3493C12.7994 12.1848 12.9877 12.0528 13.197 11.9613C13.4063 11.8698 13.6322 11.8206 13.8612 11.8166C14.0903 11.8126 14.3178 11.854 14.5302 11.9382C14.7426 12.0224 14.9356 12.1478 15.0976 12.3068C15.2596 12.4658 15.3873 12.6552 15.4731 12.8637C15.5589 13.0721 15.601 13.2955 15.597 13.5203C15.5929 13.7451 15.5428 13.9668 15.4496 14.1722C15.3563 14.3776 15.2219 14.5625 15.0543 14.7158Z" fill="#ED5C2F"/>
</svg>
