<svg width="17" height="18" viewBox="0 0 17 18" fill="none" xmlns="http://www.w3.org/2000/svg">
<path d="M6.375 3H10.125C10.125 2.50272 9.92746 2.02581 9.57582 1.67417C9.22419 1.32254 8.74728 1.125 8.25 1.125C7.75272 1.125 7.27581 1.32254 6.92417 1.67417C6.57254 2.02581 6.375 2.50272 6.375 3ZM5.25 3C5.25 2.20435 5.56607 1.44129 6.12868 0.87868C6.69129 0.316071 7.45435 0 8.25 0C9.04565 0 9.80871 0.316071 10.3713 0.87868C10.9339 1.44129 11.25 2.20435 11.25 3H15.9375C16.0867 3 16.2298 3.05926 16.3352 3.16475C16.4407 3.27024 16.5 3.41332 16.5 3.5625C16.5 3.71168 16.4407 3.85476 16.3352 3.96025C16.2298 4.06574 16.0867 4.125 15.9375 4.125H14.955L14.0422 15.0773C13.9758 15.874 13.6124 16.6167 13.0241 17.1581C12.4358 17.6994 11.6655 17.9999 10.866 18H5.634C4.83449 17.9999 4.0642 17.6994 3.47588 17.1581C2.88755 16.6167 2.52416 15.874 2.45775 15.0773L1.545 4.125H0.5625C0.413316 4.125 0.270242 4.06574 0.164752 3.96025C0.0592632 3.85476 0 3.71168 0 3.5625C0 3.41332 0.0592632 3.27024 0.164752 3.16475C0.270242 3.05926 0.413316 3 0.5625 3H5.25ZM3.579 14.9835C3.62189 15.4991 3.85697 15.9797 4.23761 16.33C4.61825 16.6804 5.11666 16.8749 5.634 16.875H10.866C11.3833 16.8749 11.8817 16.6804 12.2624 16.33C12.643 15.9797 12.8781 15.4991 12.921 14.9835L13.827 4.125H2.67375L3.579 14.9835ZM6.5625 6.75C6.71168 6.75 6.85476 6.80926 6.96025 6.91475C7.06574 7.02024 7.125 7.16332 7.125 7.3125V13.6875C7.125 13.8367 7.06574 13.9798 6.96025 14.0852C6.85476 14.1907 6.71168 14.25 6.5625 14.25C6.41332 14.25 6.27024 14.1907 6.16475 14.0852C6.05926 13.9798 6 13.8367 6 13.6875V7.3125C6 7.16332 6.05926 7.02024 6.16475 6.91475C6.27024 6.80926 6.41332 6.75 6.5625 6.75ZM10.5 7.3125C10.5 7.16332 10.4407 7.02024 10.3352 6.91475C10.2298 6.80926 10.0867 6.75 9.9375 6.75C9.78832 6.75 9.64524 6.80926 9.53975 6.91475C9.43426 7.02024 9.375 7.16332 9.375 7.3125V13.6875C9.375 13.8367 9.43426 13.9798 9.53975 14.0852C9.64524 14.1907 9.78832 14.25 9.9375 14.25C10.0867 14.25 10.2298 14.1907 10.3352 14.0852C10.4407 13.9798 10.5 13.8367 10.5 13.6875V7.3125Z" fill="#303030"/>
</svg>
