<svg width="50" height="50" viewBox="0 0 50 50" fill="none" xmlns="http://www.w3.org/2000/svg">
<path d="M24.9995 2.84375L24.9998 2.84375C30.1111 2.84777 35.0639 4.61838 39.0194 7.85568C42.9748 11.093 45.6897 15.598 46.7042 20.6076C47.7188 25.6172 46.9705 30.8235 44.5863 35.3447C42.2022 39.8655 38.3289 43.4234 33.6223 45.4159C28.2187 47.6429 22.1542 47.6454 16.7487 45.4227C11.3429 43.1999 7.03406 38.9315 4.76023 33.547C2.48641 28.1624 2.43172 22.0976 4.60808 16.6729C6.78433 11.2485 11.0152 6.90334 16.3796 4.58328C19.1068 3.4299 22.0385 2.83827 24.9995 2.84375ZM25 0.75C11.6076 0.75 0.75 11.6076 0.75 25C0.75 38.3924 11.6076 49.25 25 49.25C38.3924 49.25 49.25 38.3924 49.25 25C49.25 11.6076 38.3924 0.75 25 0.75Z" fill="#F15A22" stroke="#F15A22" stroke-width="0.5"/>
<path d="M32.2146 24.9999L38.5384 31.3236C38.5384 31.3237 38.5384 31.3237 38.5384 31.3237C38.7839 31.569 38.9786 31.8603 39.1115 32.1809C39.2444 32.5015 39.3128 32.8451 39.3128 33.1922C39.3128 33.5393 39.2444 33.8829 39.1115 34.2035C38.9786 34.5241 38.7839 34.8154 38.5384 35.0607C38.5384 35.0607 38.5384 35.0607 38.5384 35.0608L35.0619 38.5372C35.0618 38.5374 35.0616 38.5375 35.0614 38.5377C34.8168 38.7841 34.5257 38.9794 34.205 39.1124C33.8843 39.2454 33.5404 39.3134 33.1932 39.3124M32.2146 24.9999L35.0612 11.4618C34.8159 11.2164 34.5247 11.0216 34.2041 10.8888C33.8835 10.7559 33.5398 10.6875 33.1927 10.6875C32.8457 10.6875 32.502 10.7559 32.1814 10.8888C31.8608 11.0216 31.5695 11.2164 31.3242 11.4619L25.0004 17.7857L18.6766 11.4618L18.6765 11.4618C18.1808 10.9665 17.5088 10.6883 16.8081 10.6883C16.1074 10.6883 15.4353 10.9665 14.9396 11.4618L14.9396 11.4618L11.4615 14.939L11.4612 14.9392C10.9665 15.4351 10.6887 16.107 10.6887 16.8075C10.6887 17.508 10.9665 18.1799 11.4612 18.6758L11.4614 18.676L17.7862 24.9999L11.4614 31.3237L11.4614 31.3237C10.9659 31.8193 10.6875 32.4914 10.6875 33.1922C10.6875 33.893 10.9659 34.5651 11.4614 35.0607L11.4615 35.0607L14.9395 38.5378C15.1848 38.7833 15.4761 38.9781 15.7967 39.1109C16.1173 39.2438 16.461 39.3122 16.8081 39.3122C17.1551 39.3122 17.4988 39.2438 17.8194 39.1109C18.14 38.9781 18.4312 38.7833 18.6766 38.5379C18.6766 38.5379 18.6766 38.5378 18.6766 38.5378L25.0004 32.214L31.3236 38.5372C31.3237 38.5373 31.3238 38.5374 31.3239 38.5375C31.5687 38.784 31.8601 38.9795 32.181 39.1125C32.5019 39.2454 32.8459 39.3134 33.1932 39.3124M32.2146 24.9999L38.5384 18.6761C38.5384 18.676 38.5384 18.676 38.5384 18.676C38.7839 18.4307 38.9786 18.1394 39.1115 17.8188C39.2444 17.4982 39.3128 17.1546 39.3128 16.8075C39.3128 16.4604 39.2444 16.1168 39.1115 15.7962C38.9786 15.4756 38.7839 15.1843 38.5384 14.939C38.5384 14.939 38.5384 14.939 38.5384 14.9389L35.0613 11.4619L32.2146 24.9999ZM33.1932 39.3124C33.193 39.3124 33.1927 39.3123 33.1924 39.3123L33.1932 39.0624L33.194 39.3123C33.1938 39.3123 33.1935 39.3124 33.1932 39.3124ZM25.0004 28.9586L25.1773 29.1357L32.9507 36.9166C32.9507 36.9166 32.9507 36.9166 32.9508 36.9167C33.0151 36.9808 33.1023 37.0169 33.1932 37.0169C33.2841 37.0169 33.3714 36.9808 33.4357 36.9166L36.9171 33.4352C36.9813 33.3708 37.0174 33.2836 37.0174 33.1927C37.0174 33.1018 36.9814 33.0146 36.9172 32.9502C36.9172 32.9502 36.9172 32.9502 36.9171 32.9501L29.1362 25.1767L28.9592 24.9999L29.1362 24.823L36.9171 17.0496C36.9813 16.9852 37.0174 16.898 37.0174 16.807C37.0174 16.7161 36.9813 16.6289 36.9171 16.5645L33.4404 13.0878L25.0004 28.9586ZM25.0004 28.9586L24.8235 29.1357M25.0004 28.9586L24.8235 29.1357M24.8235 29.1357L17.0501 36.9166C16.9857 36.9808 16.8985 37.0169 16.8076 37.0169C16.7167 37.0169 16.6294 36.9808 16.5651 36.9166L13.0921 33.4352C13.0279 33.3708 12.9918 33.2836 12.9918 33.1927C12.9918 33.1017 13.0279 33.0145 13.0921 32.9501L20.8647 25.1766L21.0415 24.9998L20.8646 24.823L13.0881 17.053C13.0881 17.053 13.0881 17.053 13.088 17.053C13.0562 17.0212 13.031 16.9834 13.0138 16.9419C12.9966 16.9003 12.9877 16.8558 12.9877 16.8108C12.9877 16.7658 12.9966 16.7212 13.0138 16.6797C13.031 16.6381 13.0563 16.6004 13.0881 16.5685L13.0881 16.5685L16.5653 13.0913L16.5653 13.0913C16.5971 13.0595 16.6349 13.0342 16.6765 13.017C16.718 12.9998 16.7626 12.9909 16.8076 12.9909C16.8526 12.9909 16.8971 12.9998 16.9387 13.017C16.9803 13.0342 17.018 13.0595 17.0498 13.0913L17.0499 13.0913L24.8236 20.8641L25.0004 21.0409M24.8235 29.1357L25.0004 21.0409M25.0004 21.0409L25.1772 20.8641M25.0004 21.0409L25.1772 20.8641M25.1772 20.8641L32.9554 13.0878L25.1772 20.8641ZM33.1979 12.9875C33.2887 12.9875 33.3758 13.0235 33.4402 13.0876L32.9556 13.0876C33.02 13.0235 33.1071 12.9875 33.1979 12.9875Z" fill="#F15A22" stroke="#F15A22" stroke-width="0.5"/>
</svg>
