<svg width="13" height="13" viewBox="0 0 13 13" fill="none" xmlns="http://www.w3.org/2000/svg">
<path fill-rule="evenodd" clip-rule="evenodd" d="M0.417358 6.78809C0.417358 5.19679 1.0495 3.67066 2.17472 2.54545C3.29994 1.42023 4.82606 0.788086 6.41736 0.788086C8.00866 0.788086 9.53478 1.42023 10.66 2.54545C11.7852 3.67066 12.4174 5.19679 12.4174 6.78809C12.4174 8.37938 11.7852 9.90551 10.66 11.0307C9.53478 12.1559 8.00866 12.7881 6.41736 12.7881C4.82606 12.7881 3.29994 12.1559 2.17472 11.0307C1.0495 9.90551 0.417358 8.37938 0.417358 6.78809ZM6.41736 1.64872C5.05431 1.64872 3.7471 2.19019 2.78328 3.15401C1.81946 4.11783 1.278 5.42504 1.278 6.78809C1.278 8.15113 1.81946 9.45835 2.78328 10.4222C3.7471 11.386 5.05431 11.9275 6.41736 11.9275C7.7804 11.9275 9.08762 11.386 10.0514 10.4222C11.0153 9.45835 11.5567 8.15113 11.5567 6.78809C11.5567 5.42504 11.0153 4.11783 10.0514 3.15401C9.08762 2.19019 7.7804 1.64872 6.41736 1.64872ZM8.54993 4.65642C8.63484 4.74137 8.68255 4.85656 8.68255 4.97667C8.68255 5.09678 8.63484 5.21198 8.54993 5.29692L7.05785 6.78809L8.54993 8.27925C8.63498 8.36431 8.68277 8.47967 8.68277 8.59995C8.68277 8.72024 8.63498 8.8356 8.54993 8.92065C8.46487 9.00571 8.34951 9.05349 8.22923 9.05349C8.10894 9.05349 7.99358 9.00571 7.90853 8.92065L6.41736 7.42858L4.92619 8.92065C4.88408 8.96277 4.83408 8.99618 4.77905 9.01897C4.72403 9.04176 4.66505 9.05349 4.60549 9.05349C4.54593 9.05349 4.48695 9.04176 4.43193 9.01897C4.3769 8.99618 4.32691 8.96277 4.28479 8.92065C4.24268 8.87854 4.20927 8.82854 4.18648 8.77352C4.16368 8.71849 4.15195 8.65951 4.15195 8.59995C4.15195 8.54039 4.16368 8.48142 4.18648 8.42639C4.20927 8.37137 4.24268 8.32137 4.28479 8.27925L5.77686 6.78809L4.28479 5.29692C4.19974 5.21186 4.15195 5.0965 4.15195 4.97622C4.15195 4.85593 4.19974 4.74057 4.28479 4.65552C4.36985 4.57046 4.4852 4.52268 4.60549 4.52268C4.72578 4.52268 4.84114 4.57046 4.92619 4.65552L6.41736 6.14759L7.90853 4.65552C7.9506 4.61333 8.00059 4.57987 8.05562 4.55703C8.11065 4.5342 8.16965 4.52244 8.22923 4.52244C8.28881 4.52244 8.3478 4.5342 8.40283 4.55703C8.45786 4.57987 8.50785 4.61424 8.54993 4.65642Z" fill="#ED5C2F"/>
</svg>
