<svg width="26" height="25" viewBox="0 0 26 25" fill="none" xmlns="http://www.w3.org/2000/svg">
<g clip-path="url(#clip0_451_3004)">
<path fill-rule="evenodd" clip-rule="evenodd" d="M7.81421 6.87493C7.53667 7.95316 6.55791 8.74989 5.39301 8.74989C4.01232 8.74989 2.89307 7.63064 2.89307 6.24995C2.89307 4.86925 4.01232 3.75 5.39301 3.75C6.55791 3.75 7.53667 4.54673 7.81421 5.62496H24.768C25.1131 5.62496 25.393 5.90474 25.393 6.24995C25.393 6.59515 25.1131 6.87493 24.768 6.87493H7.81421ZM6.64299 6.24995C6.64299 6.94036 6.0833 7.49992 5.39301 7.49992C4.70273 7.49992 4.14304 6.94023 4.14304 6.24995C4.14304 5.55967 4.70273 4.99997 5.39301 4.99997C6.0833 4.99997 6.64299 5.55953 6.64299 6.24995Z" fill="white"/>
<path d="M1.01805 6.87497H2.97176C2.92032 6.67526 2.89301 6.46579 2.89301 6.24999C2.89301 6.03418 2.92032 5.82471 2.97176 5.625H1.01805C0.672846 5.625 0.393066 5.90478 0.393066 6.24999C0.393066 6.59519 0.672846 6.87497 1.01805 6.87497Z" fill="white"/>
<path fill-rule="evenodd" clip-rule="evenodd" d="M15.3143 18.125C15.0367 17.0467 14.0578 16.25 12.8931 16.25C11.7283 16.25 10.7493 17.0467 10.4719 18.125H1.01805C0.672846 18.125 0.393066 18.4049 0.393066 18.7499C0.393066 19.095 0.672846 19.3749 1.01805 19.3749H10.4717C10.7493 20.4532 11.7282 21.2499 12.8929 21.2499C14.0577 21.2499 15.0367 20.4532 15.3141 19.3749H24.7678C25.1129 19.3749 25.3928 19.095 25.3928 18.7499C25.3928 18.4049 25.1129 18.125 24.7678 18.125H15.3143ZM12.8931 19.9999C13.5835 19.9999 14.143 19.4404 14.143 18.7499C14.143 18.0595 13.5835 17.5 12.8931 17.5C12.2027 17.5 11.6431 18.0595 11.6431 18.7499C11.6431 19.4404 12.2027 19.9999 12.8931 19.9999Z" fill="white"/>
<path fill-rule="evenodd" clip-rule="evenodd" d="M22.8142 11.875C22.5367 10.7967 21.5578 10 20.393 10C19.2283 10 18.2492 10.7967 17.9718 11.875H1.01805C0.672846 11.875 0.393066 12.1549 0.393066 12.4999C0.393066 12.845 0.672846 13.1249 1.01805 13.1249H17.9718C18.2494 14.2032 19.2283 14.9999 20.393 14.9999C21.5578 14.9999 22.5368 14.2032 22.8142 13.1249H24.7679C25.113 13.1249 25.3929 12.845 25.3929 12.4999C25.3929 12.1549 25.113 11.875 24.7679 11.875H22.8142ZM20.393 13.7499C21.0835 13.7499 21.643 13.1904 21.643 12.4999C21.643 11.8095 21.0833 11.25 20.393 11.25C19.7026 11.25 19.1431 11.8095 19.1431 12.4999C19.1431 13.1904 19.7026 13.7499 20.393 13.7499Z" fill="white"/>
</g>
<defs>
<clipPath id="clip0_451_3004">
<rect width="25" height="25" fill="white" transform="translate(0.393066)"/>
</clipPath>
</defs>
</svg>
