<svg width="22" height="22" viewBox="0 0 22 22" fill="none" xmlns="http://www.w3.org/2000/svg">
<path d="M15.143 14.1522L14.8508 14.5029L15.1736 14.8257L20.6861 20.3382L20.2949 20.7294L14.7824 15.217L14.4596 14.8942L14.1088 15.1863C12.5154 16.5136 10.4716 17.1755 8.40264 17.0343C6.33364 16.893 4.39875 15.9596 3.00046 14.4281C1.60218 12.8966 0.848162 10.885 0.89527 8.8117C0.942379 6.73842 1.78699 4.76313 3.25339 3.29672C4.71979 1.83032 6.69509 0.985714 8.76836 0.938605C10.8416 0.891497 12.8533 1.64551 14.3847 3.0438C15.9162 4.44208 16.8497 6.37698 16.9909 8.44597C17.1322 10.515 16.4703 12.5588 15.143 14.1522ZM1.47446 9.00854L1.47446 9.00909C1.47667 10.9949 2.26652 12.8988 3.67072 14.303C5.07493 15.7072 6.97881 16.4971 8.96465 16.4993H8.9652C10.4467 16.4993 11.895 16.06 13.1268 15.2369C14.3587 14.4138 15.3188 13.2439 15.8857 11.8751C16.4527 10.5064 16.601 9.00023 16.312 7.54717C16.023 6.09411 15.3096 4.75938 14.262 3.71179C13.2144 2.66419 11.8796 1.95076 10.4266 1.66173C8.97351 1.3727 7.46738 1.52104 6.09862 2.088C4.72987 2.65495 3.55997 3.61506 2.73688 4.84691C1.91379 6.07875 1.47446 7.52701 1.47446 9.00854Z" fill="#ED5C2F" stroke="#ED5C2F"/>
</svg>
