<svg width="69" height="62" viewBox="0 0 69 62" fill="none" xmlns="http://www.w3.org/2000/svg">
<path d="M68.25 53.4688V42.2188C68.25 41.4728 67.9537 40.7575 67.4262 40.23C66.8988 39.7026 66.1834 39.4062 65.4375 39.4062C64.6916 39.4062 63.9762 39.7026 63.4488 40.23C62.9213 40.7575 62.625 41.4728 62.625 42.2188V53.4688C62.625 54.2147 62.3287 54.93 61.8012 55.4575C61.2738 55.9849 60.5584 56.2812 59.8125 56.2812H9.1875C8.44158 56.2812 7.72621 55.9849 7.19876 55.4575C6.67132 54.93 6.375 54.2147 6.375 53.4688V42.2188C6.375 41.4728 6.07868 40.7575 5.55124 40.23C5.02379 39.7026 4.30842 39.4062 3.5625 39.4062C2.81658 39.4062 2.10121 39.7026 1.57376 40.23C1.04632 40.7575 0.75 41.4728 0.75 42.2188V53.4688C0.75 55.7065 1.63895 57.8526 3.22129 59.435C4.80363 61.0173 6.94974 61.9062 9.1875 61.9062H59.8125C62.0503 61.9062 64.1964 61.0173 65.7787 59.435C67.3611 57.8526 68.25 55.7065 68.25 53.4688ZM50.3063 38.7875L36.2438 50.0375C35.7472 50.4299 35.1329 50.6433 34.5 50.6433C33.8671 50.6433 33.2528 50.4299 32.7562 50.0375L18.6938 38.7875C18.1814 38.3038 17.8692 37.6455 17.819 36.9426C17.7688 36.2398 17.9842 35.5438 18.4226 34.9922C18.8611 34.4406 19.4906 34.0737 20.1866 33.964C20.8826 33.8544 21.5945 34.0099 22.1812 34.4L31.6875 41.9938V2.84375C31.6875 2.09783 31.9838 1.38246 32.5113 0.855013C33.0387 0.327567 33.7541 0.03125 34.5 0.03125C35.2459 0.03125 35.9613 0.327567 36.4887 0.855013C37.0162 1.38246 37.3125 2.09783 37.3125 2.84375V41.9938L46.8187 34.4C47.102 34.1327 47.4376 33.9271 47.8044 33.7962C48.1713 33.6654 48.5613 33.6122 48.9497 33.6399C49.3382 33.6677 49.7167 33.7758 50.0612 33.9574C50.4057 34.1391 50.7087 34.3903 50.951 34.6952C51.1934 35.0001 51.3697 35.352 51.469 35.7286C51.5682 36.1052 51.5882 36.4983 51.5275 36.883C51.4669 37.2677 51.3271 37.6356 51.1169 37.9635C50.9066 38.2913 50.6306 38.5719 50.3063 38.7875Z" fill="#ED5C2F"/>
</svg>
