<svg width="19" height="19" viewBox="0 0 19 19" fill="none" xmlns="http://www.w3.org/2000/svg">
<path d="M17.9491 1.65183L17.9492 1.65188C18.4129 2.11851 18.6732 2.74967 18.6732 3.40755C18.6732 4.06543 18.4129 4.69659 17.9492 5.16322L17.9491 5.16328L9.34284 13.8003C9.34281 13.8004 9.34278 13.8004 9.34276 13.8004C9.25987 13.884 9.15084 13.9367 9.03384 13.9497L9.03331 13.9497L5.89611 14.2753L5.88836 14.2761V14.2757L5.8404 14.2757C5.84035 14.2757 5.84029 14.2757 5.84024 14.2757H5.83996V14.2007C5.78101 14.2011 5.72259 14.1896 5.66816 14.1669C5.61374 14.1442 5.56443 14.1109 5.52316 14.0687L17.9491 1.65183ZM17.9491 1.65183C17.7197 1.42146 17.4471 1.23867 17.1469 1.11394C16.8467 0.989208 16.5248 0.925 16.1998 0.925C15.8747 0.925 15.5528 0.989208 15.2526 1.11394C14.9524 1.23867 14.6798 1.42146 14.4504 1.65183L5.83966 10.2846L5.83922 10.285C5.75857 10.3672 5.70782 10.4741 5.69505 10.5886L17.9491 1.65183ZM17.2269 4.42379L17.2267 4.42393L16.1975 5.46156L14.1517 3.40744L15.1766 2.37415C15.4521 2.10892 15.8196 1.96074 16.202 1.96074C16.5844 1.96074 16.9519 2.10895 17.2274 2.37421C17.4984 2.6463 17.6505 3.0147 17.6505 3.39875C17.6505 3.78304 17.4982 4.15165 17.2269 4.42379ZM15.4712 6.18838L8.7448 12.9366L6.42692 13.1834L6.69465 10.8869L13.4256 4.13854L15.4712 6.18838Z" fill="#545454" stroke="#545454" stroke-width="0.15"/>
<path d="M10.68 3.71574H10.755V3.64074V2.76074V2.68574H10.68H4.08C3.24324 2.68574 2.44076 3.01814 1.84908 3.60982C1.2574 4.2015 0.925 5.00398 0.925 5.84074V15.5207C0.925 16.3575 1.2574 17.16 1.84908 17.7517C2.44076 18.3433 3.24324 18.6757 4.08 18.6757H13.76C14.5968 18.6757 15.3992 18.3433 15.9909 17.7517C16.5826 17.16 16.915 16.3575 16.915 15.5207V8.92074V8.84574H16.84H15.96H15.885V8.92074V15.5207C15.885 16.0843 15.6611 16.6248 15.2626 17.0233C14.8641 17.4219 14.3236 17.6457 13.76 17.6457H4.08C3.51641 17.6457 2.97591 17.4219 2.5774 17.0233C2.17888 16.6248 1.955 16.0843 1.955 15.5207V5.84074C1.955 5.27716 2.17888 4.73665 2.5774 4.33814C2.97591 3.93963 3.51641 3.71574 4.08 3.71574H10.68Z" fill="#545454" stroke="#545454" stroke-width="0.15"/>
</svg>
