<svg width="21" height="21" viewBox="0 0 21 21" fill="none" xmlns="http://www.w3.org/2000/svg">
<path d="M6.625 4.5H10.375C10.375 4.00272 10.1775 3.52581 9.82582 3.17417C9.47419 2.82254 8.99728 2.625 8.5 2.625C8.00272 2.625 7.52581 2.82254 7.17417 3.17417C6.82254 3.52581 6.625 4.00272 6.625 4.5ZM5.5 4.5C5.5 3.70435 5.81607 2.94129 6.37868 2.37868C6.94129 1.81607 7.70435 1.5 8.5 1.5C9.29565 1.5 10.0587 1.81607 10.6213 2.37868C11.1839 2.94129 11.5 3.70435 11.5 4.5H16.1875C16.3367 4.5 16.4798 4.55926 16.5852 4.66475C16.6907 4.77024 16.75 4.91332 16.75 5.0625C16.75 5.21168 16.6907 5.35476 16.5852 5.46025C16.4798 5.56574 16.3367 5.625 16.1875 5.625H15.205L14.2922 16.5773C14.2258 17.374 13.8624 18.1167 13.2741 18.6581C12.6858 19.1994 11.9155 19.4999 11.116 19.5H5.884C5.08449 19.4999 4.3142 19.1994 3.72588 18.6581C3.13755 18.1167 2.77416 17.374 2.70775 16.5773L1.795 5.625H0.8125C0.663316 5.625 0.520242 5.56574 0.414752 5.46025C0.309263 5.35476 0.25 5.21168 0.25 5.0625C0.25 4.91332 0.309263 4.77024 0.414752 4.66475C0.520242 4.55926 0.663316 4.5 0.8125 4.5H5.5ZM3.829 16.4835C3.87189 16.9991 4.10697 17.4797 4.48761 17.83C4.86825 18.1804 5.36666 18.3749 5.884 18.375H11.116C11.6333 18.3749 12.1317 18.1804 12.5124 17.83C12.893 17.4797 13.1281 16.9991 13.171 16.4835L14.077 5.625H2.92375L3.829 16.4835ZM6.8125 8.25C6.96168 8.25 7.10476 8.30926 7.21025 8.41475C7.31574 8.52024 7.375 8.66332 7.375 8.8125V15.1875C7.375 15.3367 7.31574 15.4798 7.21025 15.5852C7.10476 15.6907 6.96168 15.75 6.8125 15.75C6.66332 15.75 6.52024 15.6907 6.41475 15.5852C6.30926 15.4798 6.25 15.3367 6.25 15.1875V8.8125C6.25 8.66332 6.30926 8.52024 6.41475 8.41475C6.52024 8.30926 6.66332 8.25 6.8125 8.25ZM10.75 8.8125C10.75 8.66332 10.6907 8.52024 10.5852 8.41475C10.4798 8.30926 10.3367 8.25 10.1875 8.25C10.0383 8.25 9.89524 8.30926 9.78975 8.41475C9.68426 8.52024 9.625 8.66332 9.625 8.8125V15.1875C9.625 15.3367 9.68426 15.4798 9.78975 15.5852C9.89524 15.6907 10.0383 15.75 10.1875 15.75C10.3367 15.75 10.4798 15.6907 10.5852 15.5852C10.6907 15.4798 10.75 15.3367 10.75 15.1875V8.8125Z" fill="#545454"/>
</svg>
