<svg width="23" height="23" viewBox="0 0 23 23" fill="none" xmlns="http://www.w3.org/2000/svg">
<path d="M17.3615 13.2401C17.361 14.3331 16.9268 15.3813 16.1542 16.1545C14.7638 17.5448 12.5849 17.7593 10.95 16.6668C9.31516 15.5743 8.67967 13.4791 9.43222 11.6626C10.1848 9.84599 12.1158 8.81393 14.0442 9.19762C15.9727 9.58132 17.3616 11.2738 17.3615 13.2401ZM17.3615 13.2401L17.4365 13.2402L17.3615 13.2401ZM16.7552 9.725L16.7552 9.72498C15.0784 8.04796 12.4504 7.78901 10.4785 9.10645C8.50659 10.4239 7.73987 12.9508 8.64729 15.1419C9.55471 17.3329 11.8835 18.5779 14.2095 18.1154C16.5355 17.6528 18.2109 15.6117 18.211 13.2402V13.2401C18.2105 11.9219 17.6869 10.6577 16.7552 9.725Z" fill="#545454" stroke="#545454" stroke-width="0.15"/>
<path d="M19.3048 17.541L19.3056 17.5409C19.5112 17.5403 19.7086 17.6223 19.8532 17.7685L21.625 19.541C21.6252 19.5411 21.6253 19.5413 21.6255 19.5414C22.0083 19.9115 22.1618 20.4593 22.027 20.9743C21.8921 21.4896 21.4897 21.8921 20.9744 22.0269C20.4593 22.1617 19.9116 22.0083 19.5416 21.6256C19.5414 21.6254 19.5412 21.6252 19.541 21.625L17.7687 19.8527L19.3048 17.541ZM19.3048 17.541C19.2527 17.5417 19.2009 17.5476 19.1501 17.5588L18.4656 16.8742C19.5581 15.31 19.8907 13.3364 19.3689 11.4988C18.8459 9.65687 17.5207 8.14978 15.763 7.39488M19.3048 17.541L15.688 7.4445M17.5417 19.3048L17.5417 19.3039C17.5424 19.2521 17.5483 19.2005 17.5593 19.1498L16.8735 18.4637C14.74 19.9512 11.9136 19.9911 9.73817 18.5607H2.04914C1.42829 18.5607 0.925006 18.0574 0.925006 17.4365V5.48696V5.48684H1.00001L17.5417 19.3048ZM17.5417 19.3048C17.5411 19.5104 17.6228 19.7076 17.7686 19.8525L17.5417 19.3048ZM5.48697 0.925006C5.18736 0.923993 4.89986 1.04314 4.68882 1.25587C4.68878 1.25591 4.68873 1.25596 4.68869 1.25601L1.25599 4.6887C1.25596 4.68873 1.25592 4.68877 1.25589 4.6888L5.48684 1.00001M5.48697 0.925006C5.48701 0.925007 5.48706 0.925007 5.4871 0.925007L5.48684 1.00001M5.48697 0.925006H5.48684V1.00001M5.48697 0.925006H14.6389C15.2597 0.925006 15.763 1.42829 15.763 2.04914V7.39488M5.48684 1.00001H14.6389C15.2183 1.00001 15.688 1.46972 15.688 2.04914V7.4445M15.763 7.39488C15.7477 7.38831 15.7324 7.38181 15.717 7.37536L15.688 7.4445M15.763 7.39488V7.4445H15.688M9.33709 17.144L9.33673 17.1436C7.75775 15.5649 7.28533 13.1903 8.13974 11.1274C8.99416 9.0645 11.0071 7.7194 13.24 7.7194C15.4729 7.7194 17.4859 9.0645 18.3403 11.1274C19.1947 13.1903 18.7223 15.5648 17.1433 17.1436L17.143 17.144C16.1127 18.1882 14.707 18.7761 13.24 18.7761C11.7731 18.7761 10.3673 18.1882 9.33709 17.144ZM2.37501 4.77186L4.77186 2.37501V4.49715C4.77186 4.64888 4.64888 4.77186 4.49715 4.77186H2.37501ZM2.04914 17.7113C1.89741 17.7113 1.77443 17.5883 1.77443 17.4366V5.62128H4.49715C5.11799 5.62128 5.62128 5.11799 5.62128 4.49715V1.77443H14.6388C14.7906 1.77443 14.9135 1.89741 14.9135 2.04914V7.09722C12.15 6.34334 9.21683 7.52879 7.7557 10.0022C6.28553 12.4909 6.67666 15.6555 8.7031 17.7113L2.04914 17.7113ZM17.7442 17.7442C17.8042 17.6842 17.8605 17.62 17.9149 17.558C17.9199 17.5523 17.9249 17.5467 17.9298 17.541L18.4573 18.0685L18.0682 18.4576L17.5404 17.9295C17.5473 17.9235 17.5543 17.9174 17.5613 17.9113C17.6222 17.8582 17.6854 17.803 17.7442 17.7442ZM21.0261 21.0248C20.7786 21.2607 20.3895 21.2607 20.1419 21.0249C20.1417 21.0247 20.1415 21.0245 20.1413 21.0243L18.4222 19.3051L19.3051 18.4222L21.0255 20.1425C21.0255 20.1425 21.0255 20.1425 21.0255 20.1425C21.269 20.3862 21.2692 20.7809 21.0261 21.0248Z" fill="#545454" stroke="#545454" stroke-width="0.15"/>
</svg>
