<svg width="58" height="69" viewBox="0 0 58 69" fill="none" xmlns="http://www.w3.org/2000/svg">
<g clip-path="url(#clip0_1484_3181)">
<path d="M37.0001 25.1709C36.2499 25.1709 35.6418 25.8777 35.6418 26.7498V56.5908C35.6418 57.4623 36.2499 58.1697 37.0001 58.1697C37.7504 58.1697 38.3584 57.4623 38.3584 56.5908V26.7498C38.3584 25.8777 37.7504 25.1709 37.0001 25.1709Z" fill="#ED5C2F"/>
<path d="M20.9722 25.1709C20.2219 25.1709 19.6139 25.8777 19.6139 26.7498V56.5908C19.6139 57.4623 20.2219 58.1697 20.9722 58.1697C21.7225 58.1697 22.3305 57.4623 22.3305 56.5908V26.7498C22.3305 25.8777 21.7225 25.1709 20.9722 25.1709Z" fill="#ED5C2F"/>
<path d="M9.29068 20.8163V59.7169C9.29068 62.0161 10.016 64.1754 11.283 65.7247C12.5443 67.2783 14.2994 68.1602 16.1364 68.1639H41.836C43.6734 68.1602 45.4286 67.2783 46.6893 65.7247C47.9563 64.1754 48.6817 62.0161 48.6817 59.7169V20.8163C51.2004 20.0392 52.8325 17.2108 52.4955 14.2066C52.1581 11.203 49.9567 8.95617 47.3504 8.95555H40.396V6.98194C40.4039 5.32225 39.8394 3.72856 38.8286 2.55611C37.8178 1.38428 36.4447 0.731756 35.0169 0.745325H22.9555C21.5277 0.731756 20.1545 1.38428 19.1437 2.55611C18.133 3.72856 17.5684 5.32225 17.5764 6.98194V8.95555H10.6219C8.01567 8.95617 5.81426 11.203 5.4768 14.2066C5.13988 17.2108 6.77197 20.0392 9.29068 20.8163ZM41.836 65.0061H16.1364C13.814 65.0061 12.0073 62.6871 12.0073 59.7169V20.9551H45.965V59.7169C45.965 62.6871 44.1584 65.0061 41.836 65.0061ZM20.293 6.98194C20.284 6.15981 20.562 5.36851 21.0639 4.78815C21.5653 4.20778 22.2477 3.88892 22.9555 3.9031H35.0169C35.7247 3.88892 36.407 4.20778 36.9084 4.78815C37.4103 5.36789 37.6884 6.15981 37.6794 6.98194V8.95555H20.293V6.98194ZM10.6219 12.1133H47.3504C48.7008 12.1133 49.7954 13.3857 49.7954 14.9553C49.7954 16.525 48.7008 17.7973 47.3504 17.7973H10.6219C9.27158 17.7973 8.17697 16.525 8.17697 14.9553C8.17697 13.3857 9.27158 12.1133 10.6219 12.1133Z" fill="#ED5C2F"/>
<path d="M28.9861 25.1709C28.2359 25.1709 27.6278 25.8777 27.6278 26.7498V56.5908C27.6278 57.4623 28.2359 58.1697 28.9861 58.1697C29.7364 58.1697 30.3445 57.4623 30.3445 56.5908V26.7498C30.3445 25.8777 29.7364 25.1709 28.9861 25.1709Z" fill="#ED5C2F"/>
</g>
<defs>
<clipPath id="clip0_1484_3181">
<rect width="58" height="67.4188" fill="white" transform="translate(0 0.745117)"/>
</clipPath>
</defs>
</svg>
